<?xml version="1.0" encoding="UTF-8"?>
<svg id="_레이어_1" data-name="레이어 1" xmlns="http://www.w3.org/2000/svg" version="1.1" viewBox="0 0 256 256">
  <defs>
    <style>
      .cls-1 {
        fill: #000;
      }

      .cls-1, .cls-2 {
        stroke-width: 0px;
      }

      .cls-2 {
        fill: #ff4e00;
      }
    </style>
  </defs>
  <path class="cls-2" d="M227.2,46.7c10.2,10.2,15.8,23.8,15.8,38.2s-5.6,28-15.8,38.2l-99.4,99.4L28.5,123.1c-10.2-10.2-15.8-23.8-15.8-38.2s5.6-28,15.8-38.2c10.2-10.2,23.8-15.8,38.2-15.8s28,5.6,38.2,15.8l23,23,23-23c10.2-10.2,23.8-15.8,38.2-15.8s14.2,1.4,20.7,4.1c6.5,2.7,12.4,6.6,17.5,11.7Z"/>
  <path class="cls-1" d="M249.4,59.9c3.2,7.8,4.9,16.3,4.9,25,0,17.4-6.8,33.8-19.1,46.1l-107.3,107.3L20.5,131C8.2,118.7,1.4,102.3,1.4,84.9s6.8-33.8,19.1-46.1c12.3-12.3,28.7-19.1,46.1-19.1s33.8,6.8,46.1,19.1l15.1,15.1,15-15.1c12.3-12.3,28.7-19.1,46.1-19.1s33.8,6.8,46.1,19.1c6.2,6.2,10.9,13.3,14.2,21.1ZM243.1,84.9c0-14.4-5.6-28-15.8-38.2-5.1-5.1-11-9.1-17.5-11.7-6.5-2.7-13.5-4.1-20.7-4.1-14.4,0-28,5.6-38.2,15.8l-23,23-23-23c-10.2-10.2-23.8-15.8-38.2-15.8s-28,5.6-38.2,15.8c-10.2,10.2-15.8,23.8-15.8,38.2s5.6,28,15.8,38.2l99.4,99.4,99.4-99.4c10.2-10.2,15.8-23.8,15.8-38.2Z"/>
</svg>