<?xml version="1.0" encoding="UTF-8"?>
<svg id="_레이어_1" data-name="레이어 1" xmlns="http://www.w3.org/2000/svg" version="1.1" viewBox="0 0 256 256">
  <defs>
    <style>
      .cls-1 {
        fill: #000;
        stroke-width: 0px;
      }
    </style>
  </defs>
  <path class="cls-1" d="M127.9,238.4L20.5,131C8.2,118.7,1.4,102.3,1.4,84.9s6.8-33.8,19.1-46.1c12.3-12.3,28.7-19.1,46.1-19.1s33.8,6.8,46.1,19.1l15.1,15.1,15.1-15.1c12.3-12.3,28.7-19.1,46.1-19.1s33.8,6.8,46.1,19.1h0c12.3,12.3,19.1,28.7,19.1,46.1s-6.8,33.8-19.1,46.1l-107.3,107.3ZM66.7,30.9c-14.4,0-28,5.6-38.2,15.8-10.2,10.2-15.8,23.8-15.8,38.2s5.6,28,15.8,38.2l99.4,99.4,99.4-99.4c10.2-10.2,15.8-23.8,15.8-38.2s-5.6-28-15.8-38.2h0c-10.2-10.2-23.8-15.8-38.2-15.8s-28,5.6-38.2,15.8l-23,23-23-23c-10.2-10.2-23.8-15.8-38.2-15.8Z"/>
</svg>