<?xml version="1.0" encoding="UTF-8"?>
<svg id="Layer_1" data-name="Layer 1" xmlns="http://www.w3.org/2000/svg" viewBox="0 0 294.5 83.5">
  <defs>
    <style>
      .cls-1 {
      fill: #12e6fc;
      }

      .cls-2 {
      isolation: isolate;
      }
    </style>
  </defs>
  <g class="cls-2">
    <g class="cls-2">
      <path class="cls-1" d="m55.5,30.15c5.55,5.21,8.33,12.8,8.33,22.77s-2.78,17.55-8.33,22.77c-5.56,5.21-13.43,7.82-23.63,7.82s-18.06-2.59-23.58-7.78C2.76,70.54,0,62.94,0,52.92s2.76-17.62,8.29-22.81c5.53-5.18,13.39-7.77,23.58-7.77s18.07,2.61,23.63,7.82Zm-32.9,10.05c-2.12,2.46-3.18,5.79-3.18,9.97v5.5c0,4.18,1.06,7.5,3.18,9.97,2.12,2.46,5.21,3.69,9.28,3.69s7.17-1.23,9.32-3.69c2.15-2.46,3.22-5.78,3.22-9.97v-5.5c0-4.18-1.07-7.5-3.22-9.97-2.15-2.46-5.25-3.69-9.32-3.69s-7.16,1.23-9.28,3.69Z"/>
      <path class="cls-1" d="m92.1,37.58c2.46-1,5.04-1.5,7.73-1.5,5.27,0,9.22,1.46,11.86,4.38,2.63,2.92,3.95,7.13,3.95,12.63v29.38h-17.1v-27.32c0-1.95-.5-3.51-1.5-4.68-1-1.17-2.42-1.76-4.25-1.76-2.12,0-3.84.69-5.15,2.06-1.32,1.37-1.98,3.06-1.98,5.07v26.63h-17.1V20.19h17.1v21.65c1.83-1.83,3.98-3.25,6.44-4.25Z"/>
      <path class="cls-1" d="m119.76,65.63v-13.57h21.91v13.57h-21.91Z"/>
      <path class="cls-1" d="m189,40.46c2.63,2.92,3.95,7.13,3.95,12.63v29.38h-17.1v-27.32c0-1.95-.5-3.51-1.5-4.68-1-1.17-2.42-1.76-4.25-1.76-2.12,0-3.84.69-5.15,2.06-1.32,1.37-1.98,3.06-1.98,5.07v26.63h-17.1v-45.36h14l1.12,6.87c1.78-2.41,4.11-4.32,7-5.76,2.89-1.43,5.94-2.15,9.15-2.15,5.27,0,9.22,1.46,11.86,4.38Z"/>
      <path class="cls-1" d="m238.23,39.56c4.35,2.32,6.53,6.09,6.53,11.3v17.7c0,.97.23,1.78.69,2.41.46.63,1.15.94,2.06.94h3.09v9.88c-.17.12-.62.3-1.33.56-.72.26-1.73.52-3.05.77-1.32.26-2.83.39-4.55.39-3.32,0-6.06-.5-8.2-1.5-2.15-1-3.62-2.39-4.42-4.17-2.18,1.72-4.61,3.09-7.3,4.12-2.69,1.03-5.84,1.55-9.45,1.55-10.65,0-15.98-4.24-15.98-12.71,0-4.41,1.19-7.78,3.57-10.09,2.38-2.32,5.8-3.91,10.27-4.77,4.47-.86,10.31-1.29,17.53-1.29v-2.23c0-1.77-.62-3.12-1.85-4.04-1.23-.92-2.82-1.37-4.77-1.37-1.78,0-3.31.32-4.6.94-1.29.63-1.93,1.63-1.93,3.01v.34h-16.84c-.06-.29-.09-.69-.09-1.2,0-4.3,2.05-7.7,6.14-10.22,4.09-2.52,9.95-3.78,17.57-3.78,6.93,0,12.57,1.16,16.92,3.48Zm-21.35,24.74c-2.32,1.06-3.48,2.48-3.48,4.25,0,2.86,1.95,4.29,5.84,4.29,2.23,0,4.19-.6,5.88-1.8,1.69-1.2,2.53-2.69,2.53-4.47v-3.87c-4.87,0-8.46.53-10.78,1.59Z"/>
      <path class="cls-1" d="m252.49,82.47V20.19h17.1v62.28h-17.1Z"/>
      <path class="cls-1" d="m276.28,82.47v-17.1h18.21v17.1h-18.21Z"/>
    </g>
  </g>
  <g>
    <circle class="cls-1" cx="28.53" cy="12.7" r="5.2"/>
    <circle class="cls-1" cx="22.73" cy="10" r="3.6"/>
    <circle class="cls-1" cx="27.53" cy="6.4" r="4"/>
    <circle class="cls-1" cx="37.63" cy="6.4" r="3.9"/>
    <circle class="cls-1" cx="41.33" cy="9.7" r="3.7"/>
    <circle class="cls-1" cx="32.43" cy="4.4" r="4.4"/>
    <circle class="cls-1" cx="35.93" cy="12.7" r="4.5"/>
    <circle class="cls-1" cx="32.43" cy="9.5" r="3.9"/>
  </g>
</svg>